<svg xmlns="http://www.w3.org/2000/svg" xmlns:xlink="http://www.w3.org/1999/xlink" width="2000" zoomAndPan="magnify" viewBox="0 0 1500 1499.999933" height="2000" preserveAspectRatio="xMidYMid meet" version="1.0"><defs><g/><clipPath id="2e2879970f"><path d="M 285 641 L 427 641 L 427 833 L 285 833 Z M 285 641 " clip-rule="nonzero"/></clipPath><clipPath id="5618ccaa12"><path d="M 378.207031 628.21875 L 440.136719 664.671875 L 333.625 845.613281 L 271.699219 809.164062 Z M 378.207031 628.21875 " clip-rule="nonzero"/></clipPath><clipPath id="7cda53af7c"><path d="M 409.171875 646.445312 C 417.382812 651.28125 423.339844 659.179688 425.726562 668.402344 C 428.117188 677.628906 426.742188 687.425781 421.910156 695.636719 L 351.898438 814.574219 C 347.066406 822.785156 339.167969 828.742188 329.941406 831.128906 C 320.714844 833.519531 310.921875 832.144531 302.707031 827.308594 C 294.496094 822.476562 288.542969 814.578125 286.152344 805.351562 C 283.765625 796.128906 285.136719 786.332031 289.972656 778.121094 L 359.980469 659.183594 C 364.816406 650.972656 372.714844 645.015625 381.9375 642.628906 C 391.164062 640.238281 400.960938 641.613281 409.171875 646.445312 Z M 409.171875 646.445312 " clip-rule="nonzero"/></clipPath><clipPath id="1c0e7fd987"><path d="M 0 0 L 142 0 L 142 192 L 0 192 Z M 0 0 " clip-rule="nonzero"/></clipPath><clipPath id="ea14d883d4"><path d="M 93.207031 -12.78125 L 155.136719 23.671875 L 48.625 204.613281 L -13.300781 168.164062 Z M 93.207031 -12.78125 " clip-rule="nonzero"/></clipPath><clipPath id="8ba6622feb"><path d="M 124.171875 5.445312 C 132.382812 10.28125 138.339844 18.179688 140.726562 27.402344 C 143.117188 36.628906 141.742188 46.425781 136.910156 54.636719 L 66.898438 173.574219 C 62.066406 181.785156 54.167969 187.742188 44.941406 190.128906 C 35.714844 192.519531 25.921875 191.144531 17.707031 186.308594 C 9.496094 181.476562 3.542969 173.578125 1.152344 164.351562 C -1.234375 155.128906 0.136719 145.332031 4.972656 137.121094 L 74.980469 18.183594 C 79.816406 9.972656 87.714844 4.015625 96.9375 1.628906 C 106.164062 -0.761719 115.960938 0.613281 124.171875 5.445312 Z M 124.171875 5.445312 " clip-rule="nonzero"/></clipPath><clipPath id="784a9acd6d"><rect x="0" width="142" y="0" height="192"/></clipPath><clipPath id="bfc9146d9f"><path d="M 212.261719 641.300781 L 286.292969 641.300781 L 286.292969 715.335938 L 212.261719 715.335938 Z M 212.261719 641.300781 " clip-rule="nonzero"/></clipPath><clipPath id="08534dbfa4"><path d="M 249.277344 641.300781 C 228.832031 641.300781 212.261719 657.875 212.261719 678.316406 C 212.261719 698.761719 228.832031 715.335938 249.277344 715.335938 C 269.71875 715.335938 286.292969 698.761719 286.292969 678.316406 C 286.292969 657.875 269.71875 641.300781 249.277344 641.300781 Z M 249.277344 641.300781 " clip-rule="nonzero"/></clipPath><clipPath id="eba2f91a83"><path d="M 0.261719 0.300781 L 74.292969 0.300781 L 74.292969 74.335938 L 0.261719 74.335938 Z M 0.261719 0.300781 " clip-rule="nonzero"/></clipPath><clipPath id="b9c3b32d43"><path d="M 37.277344 0.300781 C 16.832031 0.300781 0.261719 16.875 0.261719 37.316406 C 0.261719 57.761719 16.832031 74.335938 37.277344 74.335938 C 57.71875 74.335938 74.292969 57.761719 74.292969 37.316406 C 74.292969 16.875 57.71875 0.300781 37.277344 0.300781 Z M 37.277344 0.300781 " clip-rule="nonzero"/></clipPath><clipPath id="84afc94b05"><rect x="0" width="75" y="0" height="75"/></clipPath><clipPath id="f1186f372c"><path d="M 326 48 L 447 48 L 447 213.679688 L 326 213.679688 Z M 326 48 " clip-rule="nonzero"/></clipPath><clipPath id="9d5ba6041b"><rect x="0" width="793" y="0" height="214"/></clipPath></defs><rect x="-150" width="1800" fill="#ffffff" y="-149.999993" height="1799.99992" fill-opacity="1"/><rect x="-150" width="1800" fill="#ffffff" y="-149.999993" height="1799.99992" fill-opacity="1"/><g clip-path="url(#2e2879970f)"><g clip-path="url(#5618ccaa12)"><g clip-path="url(#7cda53af7c)"><g transform="matrix(1, 0, 0, 1, 285, 641)"><g clip-path="url(#784a9acd6d)"><g clip-path="url(#1c0e7fd987)"><g clip-path="url(#ea14d883d4)"><g clip-path="url(#8ba6622feb)"><path fill="#f39849" d="M 93.207031 -12.78125 L 155.136719 23.671875 L 48.625 204.613281 L -13.300781 168.164062 Z M 93.207031 -12.78125 " fill-opacity="1" fill-rule="nonzero"/></g></g></g></g></g></g></g></g><g clip-path="url(#bfc9146d9f)"><g clip-path="url(#08534dbfa4)"><g transform="matrix(1, 0, 0, 1, 212, 641)"><g clip-path="url(#84afc94b05)"><g clip-path="url(#eba2f91a83)"><g clip-path="url(#b9c3b32d43)"><path fill="#f39849" d="M 0.261719 0.300781 L 74.292969 0.300781 L 74.292969 74.335938 L 0.261719 74.335938 Z M 0.261719 0.300781 " fill-opacity="1" fill-rule="nonzero"/></g></g></g></g></g></g><g transform="matrix(1, 0, 0, 1, 480, 640)"><g clip-path="url(#9d5ba6041b)"><g fill="#000000" fill-opacity="1"><g transform="translate(0.346838, 171.494695)"><g><path d="M 73.328125 3.484375 C 62.253906 3.484375 52.660156 2.019531 44.546875 -0.90625 C 36.441406 -3.832031 29.757812 -7.742188 24.5 -12.640625 C 19.238281 -17.535156 15.34375 -23.015625 12.8125 -29.078125 C 10.289062 -35.140625 9.03125 -41.257812 9.03125 -47.4375 L 30.34375 -47.4375 C 30.34375 -41.738281 32.046875 -36.398438 35.453125 -31.421875 C 38.867188 -26.453125 43.765625 -22.441406 50.140625 -19.390625 C 56.523438 -16.335938 64.210938 -14.8125 73.203125 -14.8125 C 87.171875 -14.8125 97.882812 -17.359375 105.34375 -22.453125 C 112.8125 -27.554688 116.546875 -35.160156 116.546875 -45.265625 C 116.546875 -51.691406 114.679688 -56.867188 110.953125 -60.796875 C 107.222656 -64.734375 102.144531 -67.804688 95.71875 -70.015625 C 89.300781 -72.222656 82 -73.929688 73.8125 -75.140625 C 68.351562 -76.015625 62.773438 -77.15625 57.078125 -78.5625 C 51.378906 -79.96875 45.921875 -81.796875 40.703125 -84.046875 C 35.484375 -86.296875 30.804688 -89.082031 26.671875 -92.40625 C 22.535156 -95.738281 19.265625 -99.832031 16.859375 -104.6875 C 14.453125 -109.550781 13.25 -115.273438 13.25 -121.859375 C 13.25 -127.953125 14.347656 -133.75 16.546875 -139.25 C 18.753906 -144.75 22.226562 -149.601562 26.96875 -153.8125 C 31.707031 -158.03125 37.828125 -161.34375 45.328125 -163.75 C 52.835938 -166.15625 61.929688 -167.359375 72.609375 -167.359375 C 85.453125 -167.359375 96.25 -165.375 105 -161.40625 C 113.75 -157.4375 120.367188 -151.957031 124.859375 -144.96875 C 129.359375 -137.988281 131.609375 -129.921875 131.609375 -120.765625 L 110.171875 -120.765625 C 110.171875 -126.222656 108.722656 -131.039062 105.828125 -135.21875 C 102.941406 -139.394531 98.6875 -142.664062 93.0625 -145.03125 C 87.445312 -147.394531 80.546875 -148.578125 72.359375 -148.578125 C 64.972656 -148.578125 58.832031 -147.8125 53.9375 -146.28125 C 49.039062 -144.757812 45.1875 -142.734375 42.375 -140.203125 C 39.570312 -137.679688 37.566406 -134.8125 36.359375 -131.59375 C 35.160156 -128.382812 34.5625 -125.097656 34.5625 -121.734375 C 34.5625 -116.035156 36.34375 -111.316406 39.90625 -107.578125 C 43.476562 -103.847656 48.675781 -100.859375 55.5 -98.609375 C 62.332031 -96.359375 70.644531 -94.550781 80.4375 -93.1875 C 85.894531 -92.3125 91.367188 -91.148438 96.859375 -89.703125 C 102.359375 -88.253906 107.578125 -86.382812 112.515625 -84.09375 C 117.453125 -81.8125 121.847656 -78.925781 125.703125 -75.4375 C 129.554688 -71.945312 132.585938 -67.734375 134.796875 -62.796875 C 137.003906 -57.859375 138.109375 -52.015625 138.109375 -45.265625 C 138.109375 -35.078125 135.5 -26.328125 130.28125 -19.015625 C 125.0625 -11.710938 117.613281 -6.132812 107.9375 -2.28125 C 98.269531 1.5625 86.734375 3.484375 73.328125 3.484375 Z M 73.328125 3.484375 "/></g></g></g><g fill="#000000" fill-opacity="1"><g transform="translate(132.560234, 171.494695)"><g><path d="M 40.578125 0 L 19.859375 0 L 19.859375 -169.78125 L 40.578125 -169.78125 Z M 40.578125 0 "/></g></g></g><g fill="#000000" fill-opacity="1"><g transform="translate(178.69347, 171.494695)"><g><path d="M 68.875 3.484375 C 60.445312 3.484375 52.640625 1.820312 45.453125 -1.5 C 38.265625 -4.832031 31.984375 -9.46875 26.609375 -15.40625 C 21.234375 -21.351562 17.039062 -28.257812 14.03125 -36.125 C 11.019531 -43.988281 9.515625 -52.414062 9.515625 -61.40625 C 9.515625 -70.394531 11.019531 -78.800781 14.03125 -86.625 C 17.039062 -94.457031 21.234375 -101.34375 26.609375 -107.28125 C 31.984375 -113.21875 38.265625 -117.851562 45.453125 -121.1875 C 52.640625 -124.519531 60.40625 -126.1875 68.75 -126.1875 C 76.132812 -126.1875 83 -124.984375 89.34375 -122.578125 C 95.6875 -120.171875 101.285156 -116.738281 106.140625 -112.28125 C 110.992188 -107.820312 114.785156 -102.546875 117.515625 -96.453125 L 117.515625 -122.8125 L 137.390625 -122.8125 L 137.390625 0 L 117.515625 0 L 117.515625 -26.125 C 114.785156 -20.101562 110.992188 -14.863281 106.140625 -10.40625 C 101.285156 -5.957031 95.6875 -2.53125 89.34375 -0.125 C 83 2.28125 76.175781 3.484375 68.875 3.484375 Z M 73.453125 -15.890625 C 79.472656 -15.890625 85.109375 -17.03125 90.359375 -19.3125 C 95.617188 -21.601562 100.210938 -24.816406 104.140625 -28.953125 C 108.078125 -33.085938 111.171875 -37.925781 113.421875 -43.46875 C 115.671875 -49.007812 116.796875 -54.988281 116.796875 -61.40625 C 116.796875 -67.75 115.671875 -73.671875 113.421875 -79.171875 C 111.171875 -84.671875 108.054688 -89.484375 104.078125 -93.609375 C 100.109375 -97.742188 95.515625 -100.972656 90.296875 -103.296875 C 85.085938 -105.628906 79.507812 -106.796875 73.5625 -106.796875 C 67.539062 -106.796875 61.921875 -105.691406 56.703125 -103.484375 C 51.492188 -101.273438 46.878906 -98.125 42.859375 -94.03125 C 38.847656 -89.9375 35.71875 -85.140625 33.46875 -79.640625 C 31.226562 -74.148438 30.109375 -68.070312 30.109375 -61.40625 C 30.109375 -54.582031 31.25 -48.378906 33.53125 -42.796875 C 35.820312 -37.222656 38.953125 -32.425781 42.921875 -28.40625 C 46.898438 -24.394531 51.515625 -21.304688 56.765625 -19.140625 C 62.023438 -16.972656 67.585938 -15.890625 73.453125 -15.890625 Z M 73.453125 -15.890625 "/></g></g></g><g clip-path="url(#f1186f372c)"><g fill="#000000" fill-opacity="1"><g transform="translate(321.621741, 171.494695)"><g><path d="M 26.375 41.90625 L 6.140625 41.90625 L 6.140625 24.4375 L 26.484375 24.4375 C 31.460938 24.4375 35.476562 23.550781 38.53125 21.78125 C 41.582031 20.019531 44.171875 17.3125 46.296875 13.65625 C 48.421875 10.007812 50.53125 5.414062 52.625 -0.125 L 53.9375 -3.609375 L 5.171875 -122.8125 L 27.21875 -122.8125 L 62.015625 -36 L 64.90625 -25.171875 L 68.03125 -35.875 L 102.59375 -122.6875 L 124.625 -122.8125 L 76.21875 -3.375 C 72.769531 5.289062 69.457031 12.535156 66.28125 18.359375 C 63.113281 24.179688 59.722656 28.816406 56.109375 32.265625 C 52.492188 35.722656 48.296875 38.191406 43.515625 39.671875 C 38.742188 41.160156 33.03125 41.90625 26.375 41.90625 Z M 26.375 41.90625 "/></g></g></g></g><g fill="#000000" fill-opacity="1"><g transform="translate(433.48892, 171.494695)"><g><path d="M 95.125 3.25 C 85.488281 3.25 76.375 1.828125 67.78125 -1.015625 C 59.195312 -3.867188 51.375 -7.90625 44.3125 -13.125 C 37.25 -18.34375 31.128906 -24.503906 25.953125 -31.609375 C 20.773438 -38.710938 16.78125 -46.519531 13.96875 -55.03125 C 11.15625 -63.539062 9.75 -72.53125 9.75 -82 C 9.75 -91.550781 11.15625 -100.597656 13.96875 -109.140625 C 16.78125 -117.691406 20.773438 -125.519531 25.953125 -132.625 C 31.128906 -139.726562 37.25 -145.867188 44.3125 -151.046875 C 51.375 -156.222656 59.195312 -160.234375 67.78125 -163.078125 C 76.375 -165.929688 85.488281 -167.359375 95.125 -167.359375 C 103.789062 -167.359375 112.253906 -166.132812 120.515625 -163.6875 C 128.785156 -161.238281 136.410156 -157.546875 143.390625 -152.609375 C 150.378906 -147.679688 156.363281 -141.503906 161.34375 -134.078125 C 166.320312 -126.648438 169.816406 -118 171.828125 -108.125 L 150.140625 -108.125 C 147.660156 -116.957031 143.726562 -124.300781 138.34375 -130.15625 C 132.96875 -136.019531 126.523438 -140.414062 119.015625 -143.34375 C 111.515625 -146.269531 103.347656 -147.734375 94.515625 -147.734375 C 85.609375 -147.734375 77.300781 -146.128906 69.59375 -142.921875 C 61.882812 -139.710938 55.160156 -135.15625 49.421875 -129.25 C 43.679688 -123.351562 39.1875 -116.410156 35.9375 -108.421875 C 32.6875 -100.441406 31.0625 -91.632812 31.0625 -82 C 31.0625 -72.363281 32.6875 -63.53125 35.9375 -55.5 C 39.1875 -47.476562 43.679688 -40.554688 49.421875 -34.734375 C 55.160156 -28.921875 61.882812 -24.425781 69.59375 -21.25 C 77.300781 -18.082031 85.609375 -16.5 94.515625 -16.5 C 103.347656 -16.5 111.492188 -17.960938 118.953125 -20.890625 C 126.421875 -23.816406 132.863281 -28.207031 138.28125 -34.0625 C 143.707031 -39.925781 147.625 -47.234375 150.03125 -55.984375 L 171.828125 -55.984375 C 169.816406 -46.109375 166.34375 -37.457031 161.40625 -30.03125 C 156.46875 -22.613281 150.503906 -16.4375 143.515625 -11.5 C 136.535156 -6.5625 128.910156 -2.867188 120.640625 -0.421875 C 112.378906 2.023438 103.875 3.25 95.125 3.25 Z M 95.125 3.25 "/></g></g></g><g fill="#000000" fill-opacity="1"><g transform="translate(600.856734, 171.494695)"><g><path d="M 68.875 3.484375 C 60.445312 3.484375 52.640625 1.820312 45.453125 -1.5 C 38.265625 -4.832031 31.984375 -9.46875 26.609375 -15.40625 C 21.234375 -21.351562 17.039062 -28.257812 14.03125 -36.125 C 11.019531 -43.988281 9.515625 -52.414062 9.515625 -61.40625 C 9.515625 -70.394531 11.019531 -78.800781 14.03125 -86.625 C 17.039062 -94.457031 21.234375 -101.34375 26.609375 -107.28125 C 31.984375 -113.21875 38.265625 -117.851562 45.453125 -121.1875 C 52.640625 -124.519531 60.40625 -126.1875 68.75 -126.1875 C 76.132812 -126.1875 83 -124.984375 89.34375 -122.578125 C 95.6875 -120.171875 101.285156 -116.738281 106.140625 -112.28125 C 110.992188 -107.820312 114.785156 -102.546875 117.515625 -96.453125 L 117.515625 -122.8125 L 137.390625 -122.8125 L 137.390625 0 L 117.515625 0 L 117.515625 -26.125 C 114.785156 -20.101562 110.992188 -14.863281 106.140625 -10.40625 C 101.285156 -5.957031 95.6875 -2.53125 89.34375 -0.125 C 83 2.28125 76.175781 3.484375 68.875 3.484375 Z M 73.453125 -15.890625 C 79.472656 -15.890625 85.109375 -17.03125 90.359375 -19.3125 C 95.617188 -21.601562 100.210938 -24.816406 104.140625 -28.953125 C 108.078125 -33.085938 111.171875 -37.925781 113.421875 -43.46875 C 115.671875 -49.007812 116.796875 -54.988281 116.796875 -61.40625 C 116.796875 -67.75 115.671875 -73.671875 113.421875 -79.171875 C 111.171875 -84.671875 108.054688 -89.484375 104.078125 -93.609375 C 100.109375 -97.742188 95.515625 -100.972656 90.296875 -103.296875 C 85.085938 -105.628906 79.507812 -106.796875 73.5625 -106.796875 C 67.539062 -106.796875 61.921875 -105.691406 56.703125 -103.484375 C 51.492188 -101.273438 46.878906 -98.125 42.859375 -94.03125 C 38.847656 -89.9375 35.71875 -85.140625 33.46875 -79.640625 C 31.226562 -74.148438 30.109375 -68.070312 30.109375 -61.40625 C 30.109375 -54.582031 31.25 -48.378906 33.53125 -42.796875 C 35.820312 -37.222656 38.953125 -32.425781 42.921875 -28.40625 C 46.898438 -24.394531 51.515625 -21.304688 56.765625 -19.140625 C 62.023438 -16.972656 67.585938 -15.890625 73.453125 -15.890625 Z M 73.453125 -15.890625 "/></g></g></g><g fill="#000000" fill-opacity="1"><g transform="translate(743.785004, 171.494695)"><g><path d="M 40.578125 0 L 19.859375 0 L 19.859375 -169.78125 L 40.578125 -169.78125 Z M 40.578125 0 "/></g></g></g></g></g></svg>